<?xml version="1.0" encoding="utf-8"?>
<!DOCTYPE svg PUBLIC "-//W3C//DTD SVG 1.1//EN" "http://www.w3.org/Graphics/SVG/1.1/DTD/svg11.dtd">
<svg xmlns="http://www.w3.org/2000/svg" xmlns:xlink="http://www.w3.org/1999/xlink" version="1.1" baseProfile="full" width="16" height="16" viewBox="0 0 16.00 16.00" enable-background="new 0 0 16.00 16.00" xml:space="preserve">
	<path fill="#666666" fill-opacity="1" stroke-width="1.33333" stroke-linejoin="miter" d="M 5,13L 11,13L 11,10L 5,10L 5,13 Z M 12,13L 13,13L 13,6C 13,5.92708 12.974,5.82682 12.9219,5.69922C 12.8698,5.57162 12.8177,5.48177 12.7656,5.42969L 10.5703,3.23437C 10.5182,3.18229 10.4297,3.13021 10.3047,3.07812C 10.1797,3.02604 10.0781,3 10,3L 10,6.25C 10,6.45833 9.92708,6.63541 9.78125,6.78125C 9.63541,6.92708 9.45833,7 9.25,7L 4.75,7C 4.54166,7 4.36459,6.92708 4.21875,6.78125C 4.07291,6.63541 4,6.45833 4,6.25L 4,3L 3,3L 3,13L 4,13L 4,9.75C 4,9.54166 4.07291,9.36458 4.21875,9.21875C 4.36459,9.07291 4.54166,9 4.75,9L 11.25,9C 11.4583,9 11.6354,9.07291 11.7812,9.21875C 11.9271,9.36458 12,9.54166 12,9.75L 12,13 Z M 9,5.75L 9,3.25C 9,3.18229 8.97526,3.1237 8.92578,3.07422C 8.8763,3.02474 8.81771,3 8.75,3L 7.25,3C 7.18229,3 7.12369,3.02474 7.07422,3.07422C 7.02474,3.1237 7,3.18229 7,3.25L 7,5.75C 7,5.81771 7.02474,5.8763 7.07422,5.92578C 7.12369,5.97526 7.18229,6 7.25,6L 8.75,6C 8.81771,6 8.8763,5.97526 8.92578,5.92578C 8.97526,5.8763 9,5.81771 9,5.75 Z M 14,6L 14,13.25C 14,13.4583 13.9271,13.6354 13.7812,13.7812C 13.6354,13.9271 13.4583,14 13.25,14L 2.75,14C 2.54167,14 2.36458,13.9271 2.21875,13.7812C 2.07292,13.6354 2,13.4583 2,13.25L 2,2.75C 2,2.54167 2.07292,2.36458 2.21875,2.21875C 2.36458,2.07292 2.54167,2 2.75,2L 10,2C 10.2083,2 10.4375,2.05208 10.6875,2.15625C 10.9375,2.26042 11.1354,2.38542 11.2812,2.53125L 13.4687,4.71875C 13.6146,4.86458 13.7396,5.0625 13.8437,5.3125C 13.9479,5.5625 14,5.79166 14,6 Z "/>
</svg>
