<?xml version="1.0" encoding="utf-8"?>
<!DOCTYPE svg PUBLIC "-//W3C//DTD SVG 1.1//EN" "http://www.w3.org/Graphics/SVG/1.1/DTD/svg11.dtd">
<svg xmlns="http://www.w3.org/2000/svg" xmlns:xlink="http://www.w3.org/1999/xlink" version="1.1" baseProfile="full" width="16" height="16" viewBox="0 0 16.00 16.00" enable-background="new 0 0 16.00 16.00" xml:space="preserve">
	<path fill="#666666" fill-opacity="1" stroke-width="0.2" stroke-linejoin="miter" d="M 7.79167,7C 7.93055,7.0528 8,7.15181 8,7.29703L 8,12.6832C 8,12.8284 7.93055,12.9274 7.79167,12.9802C 7.73611,12.9934 7.69445,13 7.66667,13C 7.58333,13 7.50347,12.9703 7.42708,12.9109L 5.69792,11.2574L 4.33333,11.2574C 4.23611,11.2574 4.15625,11.2277 4.09375,11.1683C 4.03125,11.1089 4,11.033 4,10.9406L 4,9.0396C 4,8.9472 4.03125,8.87129 4.09375,8.81188C 4.15625,8.75248 4.23611,8.72277 4.33333,8.72277L 5.69792,8.72277L 7.42708,7.06931C 7.5382,6.9703 7.65972,6.9472 7.79167,7 Z "/>
	<path fill="#666666" fill-opacity="1" stroke-width="0.2" stroke-linejoin="miter" d="M 13.4687,3.96875C 13.6146,4.11458 13.7396,4.3125 13.8437,4.5625C 13.9479,4.8125 14,5.04167 14,5.25L 14,14.25C 14,14.4583 13.9271,14.6354 13.7812,14.7813C 13.6354,14.9271 13.4583,15 13.25,15L 2.75,15C 2.54167,15 2.36458,14.9271 2.21875,14.7813C 2.07292,14.6354 2,14.4583 2,14.25L 2,1.75C 2,1.54167 2.07292,1.36458 2.21875,1.21875C 2.36458,1.07292 2.54167,1 2.75,1L 9.75,1C 9.95833,1 10.1875,1.05208 10.4375,1.15625C 10.6875,1.26042 10.8854,1.38542 11.0312,1.53125L 13.4687,3.96875 Z M 10,2.0625L 10,5L 12.9375,5C 12.8854,4.84896 12.8281,4.74219 12.7656,4.67969L 10.3203,2.23438C 10.2578,2.17188 10.151,2.11458 10,2.0625 Z M 13,14L 13,6L 9.75,6C 9.54166,6 9.36458,5.92709 9.21875,5.78125C 9.07291,5.63542 9,5.45834 9,5.25L 9,2L 3,2L 3,14L 13,14 Z "/>
</svg>
