<?xml version="1.0" encoding="utf-8"?>
<!DOCTYPE svg PUBLIC "-//W3C//DTD SVG 1.1//EN" "http://www.w3.org/Graphics/SVG/1.1/DTD/svg11.dtd">
<svg xmlns="http://www.w3.org/2000/svg" xmlns:xlink="http://www.w3.org/1999/xlink" version="1.1" baseProfile="full" width="16" height="16" viewBox="0 0 16.00 16.00" enable-background="new 0 0 16.00 16.00" xml:space="preserve">
	<path fill="#666666" fill-opacity="1" stroke-width="1.33333" stroke-linejoin="miter" d="M 13.4687,3.96875C 13.6146,4.11458 13.7396,4.3125 13.8437,4.5625C 13.9479,4.8125 14,5.04166 14,5.25L 14,14.25C 14,14.4583 13.9271,14.6354 13.7812,14.7813C 13.6354,14.9271 13.4583,15 13.25,15L 2.75,15C 2.54167,15 2.36458,14.9271 2.21875,14.7813C 2.07292,14.6354 2,14.4583 2,14.25L 2,1.75C 2,1.54167 2.07292,1.36458 2.21875,1.21875C 2.36458,1.07292 2.54167,1 2.75,1L 9.75,1C 9.95833,1 10.1875,1.05208 10.4375,1.15625C 10.6875,1.26042 10.8854,1.38542 11.0312,1.53125L 13.4687,3.96875 Z M 10,2.0625L 10,5L 12.9375,5C 12.8854,4.84896 12.8281,4.74219 12.7656,4.67969L 10.3203,2.23438C 10.2578,2.17188 10.151,2.11458 10,2.0625 Z M 13,14L 13,6L 9.75,6C 9.54166,6 9.36458,5.92709 9.21875,5.78125C 9.07291,5.63542 9,5.45834 9,5.25L 9,2L 3,2L 3,14L 13,14 Z M 8.98437,9.36719C 9.15625,9.5026 9.375,9.64844 9.64062,9.80469C 9.94791,9.76823 10.2526,9.75 10.5547,9.75C 11.3203,9.75 11.7812,9.8776 11.9375,10.1328C 12.0208,10.2474 12.026,10.3828 11.9531,10.5391C 11.9531,10.5443 11.9505,10.5495 11.9453,10.5547L 11.9297,10.5703L 11.9297,10.5781C 11.8984,10.776 11.7135,10.875 11.375,10.875C 11.125,10.875 10.8255,10.8229 10.4766,10.7188C 10.1276,10.6146 9.78906,10.4766 9.46094,10.3047C 8.3099,10.4297 7.28906,10.6458 6.39844,10.9531C 5.60156,12.3177 4.97135,13 4.50781,13C 4.42969,13 4.35677,12.9818 4.28906,12.9453L 4.10156,12.8516C 4.09635,12.8464 4.08073,12.8333 4.05469,12.8125C 4.0026,12.7604 3.98698,12.6667 4.00781,12.5313C 4.05469,12.3229 4.20052,12.0846 4.44531,11.8164C 4.6901,11.5482 5.03385,11.2969 5.47656,11.0625C 5.54948,11.0156 5.60937,11.0313 5.65625,11.1094C 5.66666,11.1198 5.67187,11.1302 5.67187,11.1406C 5.94271,10.6979 6.22135,10.1849 6.50781,9.60156C 6.86198,8.89323 7.13281,8.21094 7.32031,7.55469C 7.19531,7.1276 7.11588,6.71224 7.08203,6.30859C 7.04818,5.90495 7.0651,5.57292 7.13281,5.3125C 7.1901,5.10416 7.29948,5 7.46094,5L 7.63281,5C 7.7526,5 7.84375,5.03906 7.90625,5.11719C 8,5.22656 8.02344,5.40365 7.97656,5.64844C 7.96615,5.67969 7.95573,5.70052 7.94531,5.71094C 7.95052,5.72656 7.95312,5.7474 7.95312,5.77344L 7.95312,6.00781C 7.94271,6.64844 7.90625,7.14844 7.84375,7.50781C 8.13021,8.36198 8.51041,8.98177 8.98437,9.36719 Z M 4.48437,12.5781C 4.75521,12.4531 5.11198,12.0417 5.55469,11.3438C 5.28906,11.5521 5.06119,11.7708 4.87109,12C 4.68099,12.2292 4.55208,12.4219 4.48437,12.5781 Z M 7.59375,5.39063C 7.51562,5.60938 7.51041,5.95313 7.57812,6.42188C 7.58333,6.38542 7.60156,6.27084 7.63281,6.07813C 7.63281,6.0625 7.65104,5.95052 7.6875,5.74219C 7.69271,5.72135 7.70312,5.70052 7.71875,5.67969C 7.71354,5.67448 7.71094,5.66927 7.71094,5.66406C 7.71094,5.65885 7.70963,5.65495 7.70703,5.65234C 7.70443,5.64974 7.70312,5.64584 7.70312,5.64063C 7.69791,5.52604 7.66406,5.43229 7.60156,5.35938C 7.60156,5.36459 7.59896,5.36979 7.59375,5.375L 7.59375,5.39063 Z M 6.625,10.5547C 7.32812,10.2734 8.06771,10.0625 8.84375,9.92188C 8.83333,9.91666 8.79948,9.89193 8.74219,9.84766C 8.6849,9.80338 8.64323,9.76823 8.61719,9.74219C 8.22135,9.39323 7.89062,8.9349 7.625,8.36719C 7.48437,8.8151 7.26823,9.32813 6.97656,9.90625C 6.82031,10.1979 6.70312,10.4141 6.625,10.5547 Z M 11.6719,10.4297C 11.5469,10.3047 11.1823,10.2422 10.5781,10.2422C 10.974,10.388 11.2969,10.4609 11.5469,10.4609C 11.6198,10.4609 11.6667,10.4583 11.6875,10.4531C 11.6875,10.4479 11.6823,10.4401 11.6719,10.4297 Z "/>
</svg>
