<?xml version="1.0" encoding="utf-8"?>
<!DOCTYPE svg PUBLIC "-//W3C//DTD SVG 1.1//EN" "http://www.w3.org/Graphics/SVG/1.1/DTD/svg11.dtd">
<svg xmlns="http://www.w3.org/2000/svg" xmlns:xlink="http://www.w3.org/1999/xlink" version="1.1" baseProfile="full" width="32" height="32" viewBox="0 0 32.00 32.00" enable-background="new 0 0 32.00 32.00" xml:space="preserve">
	<path fill="#000000" fill-opacity="0.4" d="M 16,0C 24.8366,0 32,7.16344 32,16C 32,24.8366 24.8366,32 16,32C 7.16344,32 -1.27157e-006,24.8366 -1.27157e-006,16C -1.27157e-006,7.16345 7.16344,0 16,0 Z M 16,6C 10.4772,6 6,10.4772 6,16C 6,21.5229 10.4772,26 16,26C 21.5228,26 26,21.5229 26,16C 26,10.4772 21.5228,6 16,6 Z "/>
	<path fill="#ffffff" fill-opacity="1" d="M 16.8809,1.02543C 20.3598,1.2269 23.5208,2.61402 25.9656,4.78875L 23.3081,7.77842C 21.5152,6.18362 19.1972,5.1664 16.646,5.01866L 16.8809,1.02543 Z M 27.2113,6.03445C 29.386,8.47925 30.7731,11.6402 30.9746,15.1192L 26.9813,15.3541C 26.8336,12.8028 25.8164,10.4848 24.2216,8.69193L 27.2113,6.03445 Z M 30.9746,16.8809C 30.7731,20.3598 29.386,23.5208 27.2113,25.9656L 24.2216,23.3081C 25.8164,21.5152 26.8336,19.1972 26.9813,16.646L 30.9746,16.8809 Z M 25.9656,27.2113C 23.5208,29.386 20.3598,30.7731 16.8809,30.9746L 16.646,26.9813C 19.1972,26.8336 21.5152,25.8164 23.3081,24.2216L 25.9656,27.2113 Z M 15.1192,30.9746C 11.6402,30.7731 8.47925,29.386 6.03444,27.2113L 8.69192,24.2216C 10.4848,25.8164 12.8028,26.8336 15.354,26.9814L 15.1192,30.9746 Z M 4.78874,25.9656C 2.61402,23.5208 1.22689,20.3598 1.02543,16.8809L 5.01865,16.646C 5.16639,19.1972 6.18361,21.5152 7.77841,23.3081L 4.78874,25.9656 Z M 1.02543,15.1192C 1.22689,11.6402 2.61401,8.47925 4.78874,6.03444L 7.77841,8.69193C 6.18361,10.4848 5.16639,12.8028 5.01865,15.354L 1.02543,15.1192 Z M 6.03444,4.78874C 8.47924,2.61402 11.6402,1.2269 15.1191,1.02544L 15.354,5.01866C 12.8028,5.1664 10.4848,6.18361 8.69192,7.77841L 6.03444,4.78874 Z "/>
</svg>