<?xml version="1.0" encoding="utf-8"?>
<!DOCTYPE svg PUBLIC "-//W3C//DTD SVG 1.1//EN" "http://www.w3.org/Graphics/SVG/1.1/DTD/svg11.dtd">
<svg xmlns="http://www.w3.org/2000/svg" xmlns:xlink="http://www.w3.org/1999/xlink" version="1.1" baseProfile="full" width="16" height="16" viewBox="0 0 16.00 16.00" enable-background="new 0 0 16.00 16.00" xml:space="preserve">
	<path fill="#666666" fill-opacity="1" stroke-width="0.2" stroke-linejoin="miter" d="M 12,7.45L 12,12.55C 12,12.6812 11.942,12.7734 11.8259,12.8266C 11.7872,12.8422 11.75,12.85 11.7143,12.85C 11.6339,12.85 11.567,12.8203 11.5134,12.7609L 9.71429,10.8719L 9.71429,11.65C 9.71429,12.0219 9.58854,12.3398 9.33705,12.6039C 9.08557,12.868 8.78274,13 8.42857,13L 5.28571,13C 4.93155,13 4.62872,12.868 4.37723,12.6039C 4.12574,12.3398 4,12.0219 4,11.65L 4,8.35C 4,7.97813 4.12574,7.66016 4.37723,7.39609C 4.62872,7.13203 4.93155,7 5.28571,7L 8.42857,7C 8.78274,7 9.08557,7.13203 9.33705,7.39609C 9.58854,7.66016 9.71429,7.97813 9.71429,8.35L 9.71429,9.12344L 11.5134,7.23906C 11.567,7.17969 11.6339,7.15 11.7143,7.15C 11.75,7.15 11.7872,7.15781 11.8259,7.17344C 11.942,7.22656 12,7.31875 12,7.45 Z "/>
	<path fill="#666666" fill-opacity="1" stroke-width="0.2" stroke-linejoin="miter" d="M 13.4688,3.96875C 13.6146,4.11458 13.7396,4.3125 13.8438,4.5625C 13.9479,4.8125 14,5.04167 14,5.25L 14,14.25C 14,14.4583 13.9271,14.6354 13.7813,14.7813C 13.6354,14.9271 13.4583,15 13.25,15L 2.75,15C 2.54167,15 2.36459,14.9271 2.21875,14.7813C 2.07292,14.6354 2,14.4583 2,14.25L 2,1.75C 2,1.54167 2.07292,1.36459 2.21875,1.21875C 2.36459,1.07292 2.54167,1 2.75,1L 9.75,1C 9.95834,1 10.1875,1.05209 10.4375,1.15625C 10.6875,1.26042 10.8854,1.38542 11.0313,1.53125L 13.4688,3.96875 Z M 10,2.0625L 10,5L 12.9375,5C 12.8854,4.84896 12.8281,4.74219 12.7656,4.67969L 10.3203,2.23438C 10.2578,2.17188 10.151,2.11458 10,2.0625 Z M 13,14L 13,6L 9.75,6C 9.54167,6 9.36459,5.92709 9.21875,5.78125C 9.07292,5.63542 9,5.45834 9,5.25L 9,2L 3,2L 3,14L 13,14 Z "/>
</svg>
