<?xml version="1.0" encoding="utf-8"?>
<!DOCTYPE svg PUBLIC "-//W3C//DTD SVG 1.1//EN" "http://www.w3.org/Graphics/SVG/1.1/DTD/svg11.dtd">
<svg xmlns="http://www.w3.org/2000/svg" xmlns:xlink="http://www.w3.org/1999/xlink" version="1.1" baseProfile="full" width="16" height="16" viewBox="0 0 16.00 16.00" enable-background="new 0 0 16.00 16.00" xml:space="preserve">
	<path fill="#666666" fill-opacity="1" stroke-width="0.2" stroke-linejoin="miter" d="M 13.4688,3.96875C 13.6146,4.11458 13.7396,4.3125 13.8438,4.5625C 13.9479,4.8125 14,5.04166 14,5.25L 14,14.25C 14,14.4583 13.9271,14.6354 13.7813,14.7813C 13.6354,14.9271 13.4583,15 13.25,15L 2.75,15C 2.54167,15 2.36458,14.9271 2.21875,14.7813C 2.07292,14.6354 2,14.4583 2,14.25L 2,1.75C 2,1.54167 2.07292,1.36458 2.21875,1.21875C 2.36458,1.07292 2.54167,0.999999 2.75,0.999999L 9.75,0.999999C 9.95834,0.999999 10.1875,1.05208 10.4375,1.15625C 10.6875,1.26042 10.8854,1.38542 11.0313,1.53125L 13.4688,3.96875 Z M 10,2.0625L 10,5L 12.9375,5C 12.8854,4.84896 12.8281,4.74219 12.7656,4.67969L 10.3203,2.23437C 10.2578,2.17187 10.151,2.11458 10,2.0625 Z M 13,14L 13,6L 9.75,6C 9.54166,6 9.36458,5.92708 9.21875,5.78125C 9.07291,5.63541 9,5.45833 9,5.25L 9,2L 3,2L 3,14L 13,14 Z M 5,7.25C 5,7.17708 5.02344,7.11719 5.07031,7.07031C 5.11719,7.02344 5.17709,7 5.25,7L 10.75,7C 10.8229,7 10.8828,7.02344 10.9297,7.07031C 10.9766,7.11719 11,7.17708 11,7.25L 11,7.75C 11,7.82291 10.9766,7.88281 10.9297,7.92969C 10.8828,7.97656 10.8229,8 10.75,8L 5.25,8C 5.17709,8 5.11719,7.97656 5.07031,7.92969C 5.02344,7.88281 5,7.82291 5,7.75L 5,7.25 Z M 10.75,9C 10.8229,9 10.8828,9.02344 10.9297,9.07031C 10.9766,9.11719 11,9.17709 11,9.25L 11,9.75C 11,9.82291 10.9766,9.88281 10.9297,9.92969C 10.8828,9.97656 10.8229,10 10.75,10L 5.25,10C 5.17709,10 5.11719,9.97656 5.07031,9.92969C 5.02344,9.88281 5,9.82291 5,9.75L 5,9.25C 5,9.17709 5.02344,9.11719 5.07031,9.07031C 5.11719,9.02344 5.17709,9 5.25,9L 10.75,9 Z M 10.75,11C 10.8229,11 10.8828,11.0234 10.9297,11.0703C 10.9766,11.1172 11,11.1771 11,11.25L 11,11.75C 11,11.8229 10.9766,11.8828 10.9297,11.9297C 10.8828,11.9766 10.8229,12 10.75,12L 5.25,12C 5.17709,12 5.11719,11.9766 5.07031,11.9297C 5.02344,11.8828 5,11.8229 5,11.75L 5,11.25C 5,11.1771 5.02344,11.1172 5.07031,11.0703C 5.11719,11.0234 5.17709,11 5.25,11L 10.75,11 Z "/>
</svg>
